<svg xmlns="http://www.w3.org/2000/svg" viewBox="0 0 100 100" preserveAspectRatio="xMidYMid" width="204" height="204" style="shape-rendering: auto; display: block; background: rgb(34, 45, 45);" xmlns:xlink="http://www.w3.org/1999/xlink"><g><g transform="rotate(0 50 50)">
  <rect fill="#f47721" height="16" width="5" ry="6.5600000000000005" rx="2.5" y="25" x="47.5">
    <animate repeatCount="indefinite" begin="-4.037267080745341s" dur="4.3478260869565215s" keyTimes="0;1" values="1;0" attributeName="opacity"></animate>
  </rect>
</g><g transform="rotate(25.714285714285715 50 50)">
  <rect fill="#f47721" height="16" width="5" ry="6.5600000000000005" rx="2.5" y="25" x="47.5">
    <animate repeatCount="indefinite" begin="-3.7267080745341614s" dur="4.3478260869565215s" keyTimes="0;1" values="1;0" attributeName="opacity"></animate>
  </rect>
</g><g transform="rotate(51.42857142857143 50 50)">
  <rect fill="#f47721" height="16" width="5" ry="6.5600000000000005" rx="2.5" y="25" x="47.5">
    <animate repeatCount="indefinite" begin="-3.4161490683229814s" dur="4.3478260869565215s" keyTimes="0;1" values="1;0" attributeName="opacity"></animate>
  </rect>
</g><g transform="rotate(77.14285714285714 50 50)">
  <rect fill="#f47721" height="16" width="5" ry="6.5600000000000005" rx="2.5" y="25" x="47.5">
    <animate repeatCount="indefinite" begin="-3.105590062111801s" dur="4.3478260869565215s" keyTimes="0;1" values="1;0" attributeName="opacity"></animate>
  </rect>
</g><g transform="rotate(102.85714285714286 50 50)">
  <rect fill="#f47721" height="16" width="5" ry="6.5600000000000005" rx="2.5" y="25" x="47.5">
    <animate repeatCount="indefinite" begin="-2.795031055900621s" dur="4.3478260869565215s" keyTimes="0;1" values="1;0" attributeName="opacity"></animate>
  </rect>
</g><g transform="rotate(128.57142857142858 50 50)">
  <rect fill="#f47721" height="16" width="5" ry="6.5600000000000005" rx="2.5" y="25" x="47.5">
    <animate repeatCount="indefinite" begin="-2.484472049689441s" dur="4.3478260869565215s" keyTimes="0;1" values="1;0" attributeName="opacity"></animate>
  </rect>
</g><g transform="rotate(154.28571428571428 50 50)">
  <rect fill="#f47721" height="16" width="5" ry="6.5600000000000005" rx="2.5" y="25" x="47.5">
    <animate repeatCount="indefinite" begin="-2.1739130434782608s" dur="4.3478260869565215s" keyTimes="0;1" values="1;0" attributeName="opacity"></animate>
  </rect>
</g><g transform="rotate(180 50 50)">
  <rect fill="#f47721" height="16" width="5" ry="6.5600000000000005" rx="2.5" y="25" x="47.5">
    <animate repeatCount="indefinite" begin="-1.8633540372670807s" dur="4.3478260869565215s" keyTimes="0;1" values="1;0" attributeName="opacity"></animate>
  </rect>
</g><g transform="rotate(205.71428571428572 50 50)">
  <rect fill="#f47721" height="16" width="5" ry="6.5600000000000005" rx="2.5" y="25" x="47.5">
    <animate repeatCount="indefinite" begin="-1.5527950310559004s" dur="4.3478260869565215s" keyTimes="0;1" values="1;0" attributeName="opacity"></animate>
  </rect>
</g><g transform="rotate(231.42857142857142 50 50)">
  <rect fill="#f47721" height="16" width="5" ry="6.5600000000000005" rx="2.5" y="25" x="47.5">
    <animate repeatCount="indefinite" begin="-1.2422360248447204s" dur="4.3478260869565215s" keyTimes="0;1" values="1;0" attributeName="opacity"></animate>
  </rect>
</g><g transform="rotate(257.14285714285717 50 50)">
  <rect fill="#f47721" height="16" width="5" ry="6.5600000000000005" rx="2.5" y="25" x="47.5">
    <animate repeatCount="indefinite" begin="-0.9316770186335404s" dur="4.3478260869565215s" keyTimes="0;1" values="1;0" attributeName="opacity"></animate>
  </rect>
</g><g transform="rotate(282.85714285714283 50 50)">
  <rect fill="#f47721" height="16" width="5" ry="6.5600000000000005" rx="2.5" y="25" x="47.5">
    <animate repeatCount="indefinite" begin="-0.6211180124223602s" dur="4.3478260869565215s" keyTimes="0;1" values="1;0" attributeName="opacity"></animate>
  </rect>
</g><g transform="rotate(308.57142857142856 50 50)">
  <rect fill="#f47721" height="16" width="5" ry="6.5600000000000005" rx="2.5" y="25" x="47.5">
    <animate repeatCount="indefinite" begin="-0.3105590062111801s" dur="4.3478260869565215s" keyTimes="0;1" values="1;0" attributeName="opacity"></animate>
  </rect>
</g><g transform="rotate(334.2857142857143 50 50)">
  <rect fill="#f47721" height="16" width="5" ry="6.5600000000000005" rx="2.5" y="25" x="47.5">
    <animate repeatCount="indefinite" begin="0s" dur="4.3478260869565215s" keyTimes="0;1" values="1;0" attributeName="opacity"></animate>
  </rect>
</g><g></g></g><!-- [ldio] generated by https://loading.io --></svg>